<?xml version="1.0" encoding="UTF-8" standalone="no"?>
<!DOCTYPE svg PUBLIC "-//W3C//DTD SVG 1.1//EN"
 "http://www.w3.org/Graphics/SVG/1.1/DTD/svg11.dtd">
<!-- Generated by graphviz version 2.43.0 (0)
 -->
<!-- Title: %3 Pages: 1 -->
<svg width="874pt" height="1473pt"
 viewBox="0.00 0.00 874.00 1473.43" xmlns="http://www.w3.org/2000/svg" xmlns:xlink="http://www.w3.org/1999/xlink">
<g id="graph0" class="graph" transform="scale(1 1) rotate(0) translate(4 1469.43)">
<title>%3</title>
<polygon fill="white" stroke="transparent" points="-4,4 -4,-1469.43 870,-1469.43 870,4 -4,4"/>
<g id="clust1" class="cluster">
<title>cluster_1</title>
<polygon fill="none" stroke="#dddddd" stroke-width="2" points="64,-8 64,-1457.43 858,-1457.43 858,-8 64,-8"/>
<text text-anchor="start" x="782.5" y="-1439.23" font-family="Purisa" font-size="14.00" fill="#999999">depth: 1</text>
<text text-anchor="start" x="782.5" y="-1420.23" font-family="Purisa" font-size="14.00" fill="#999999">i: 0</text>
</g>
<g id="clust2" class="cluster">
<title>cluster_1a</title>
<polygon fill="none" stroke="#bbbbdd" stroke-width="2" points="212,-656.41 212,-1293.23 828,-1293.23 828,-656.41 212,-656.41"/>
<text text-anchor="start" x="747" y="-1275.03" font-family="Purisa" font-size="14.00" fill="#7777bb">depth: 2</text>
<text text-anchor="start" x="747" y="-1256.03" font-family="Purisa" font-size="14.00" fill="#7777bb">i: 0</text>
</g>
<g id="clust3" class="cluster">
<title>cluster_1aa</title>
<polygon fill="none" stroke="#aaddaa" stroke-width="2" points="360,-720.61 360,-1129.02 798,-1129.02 798,-720.61 360,-720.61"/>
<text text-anchor="start" x="719" y="-1110.82" font-family="Purisa" font-size="14.00" fill="#77bb77">depth: 3</text>
<text text-anchor="start" x="719" y="-1091.82" font-family="Purisa" font-size="14.00" fill="#77bb77">i: 0</text>
</g>
<g id="clust4" class="cluster">
<title>cluster_1aaa</title>
<polygon fill="none" stroke="#ddaaaa" stroke-width="2" points="520,-835.61 520,-964.82 768,-964.82 768,-835.61 520,-835.61"/>
<text text-anchor="start" x="691" y="-946.12" font-family="Purisa" font-size="14.00" fill="#bb7777">depth: 4</text>
</g>
<g id="clust5" class="cluster">
<title>cluster_2a</title>
<polygon fill="none" stroke="#bbbbdd" stroke-width="2" points="197,-38 197,-639.41 813,-639.41 813,-38 197,-38"/>
<text text-anchor="start" x="732" y="-621.21" font-family="Purisa" font-size="14.00" fill="#7777bb">depth: 2</text>
<text text-anchor="start" x="732" y="-602.21" font-family="Purisa" font-size="14.00" fill="#7777bb">i: 1</text>
</g>
<g id="clust6" class="cluster">
<title>cluster_2aa</title>
<polygon fill="none" stroke="#aaddaa" stroke-width="2" points="345,-68 345,-476.41 783,-476.41 783,-68 345,-68"/>
<text text-anchor="start" x="704" y="-458.21" font-family="Purisa" font-size="14.00" fill="#77bb77">depth: 3</text>
<text text-anchor="start" x="704" y="-439.21" font-family="Purisa" font-size="14.00" fill="#77bb77">i: 0</text>
</g>
<g id="clust7" class="cluster">
<title>cluster_2aaa</title>
<polygon fill="none" stroke="#ddaaaa" stroke-width="2" points="505,-183 505,-312.21 753,-312.21 753,-183 505,-183"/>
<text text-anchor="start" x="676" y="-293.51" font-family="Purisa" font-size="14.00" fill="#bb7777">depth: 4</text>
</g>
<!-- C1_permute -->
<g id="node1" class="node">
<title>C1_permute</title>
<polygon fill="none" stroke="#999999" stroke-width="2" points="254.49,-1353.09 362,-1339.12 469.51,-1353.09 469.41,-1375.68 254.59,-1375.68 254.49,-1353.09"/>
<text text-anchor="start" x="308.5" y="-1356.63" font-family="Purisa" font-size="14.00">permute(</text>
<text text-anchor="start" x="380.5" y="-1356.63" font-family="Purisa" font-size="14.00" fill="#0378ab">abc</text>
<text text-anchor="start" x="405.5" y="-1356.63" font-family="Purisa" font-size="14.00">)</text>
</g>
<!-- C1_used_chars -->
<g id="node2" class="node">
<title>C1_used_chars</title>
<polygon fill="none" stroke="#999999" stroke-width="0" points="94,-1176.12 94,-1214.12 182,-1214.12 182,-1176.12 94,-1176.12"/>
<polygon fill="none" stroke="#999999" stroke-width="2" points="103,-1181.12 103,-1209.12 125,-1209.12 125,-1181.12 103,-1181.12"/>
<text text-anchor="start" x="109" y="-1190.72" font-family="Purisa" font-size="18.00" fill="#0378ab">a</text>
<polygon fill="none" stroke="#999999" stroke-width="2" points="127,-1181.12 127,-1209.12 149,-1209.12 149,-1181.12 127,-1181.12"/>
<text text-anchor="start" x="131.5" y="-1190.72" font-family="Purisa" font-size="18.00" fill="#0378ab"> </text>
<polygon fill="none" stroke="#999999" stroke-width="2" points="151,-1181.12 151,-1209.12 173,-1209.12 173,-1181.12 151,-1181.12"/>
<text text-anchor="start" x="155.5" y="-1190.72" font-family="Purisa" font-size="18.00" fill="#0378ab"> </text>
<text text-anchor="start" x="0" y="-1218.42" font-family="Purisa" font-size="14.00">used_chars[]</text>
</g>
<!-- C1_permute&#45;&gt;C1_used_chars -->
<g id="edge2" class="edge">
<title>C1_permute&#45;&gt;C1_used_chars</title>
<path fill="none" stroke="#999999" stroke-width="2" d="M300.84,-1346.94C265.82,-1337.66 223.17,-1321.33 194,-1293.23 173.55,-1273.53 158.23,-1244.74 148.82,-1223.63"/>
<polygon fill="#999999" stroke="#999999" stroke-width="2" points="151.95,-1222.06 144.8,-1214.24 145.52,-1224.81 151.95,-1222.06"/>
<text text-anchor="start" x="230" y="-1306.83" font-family="Purisa" font-size="18.00" fill="#999999"> .push(a)</text>
</g>
<!-- C1A_permute -->
<g id="node4" class="node">
<title>C1A_permute</title>
<polygon fill="none" stroke="#7777bb" stroke-width="2" points="260.72,-1188.88 362,-1174.92 463.28,-1188.88 463.18,-1211.47 260.82,-1211.47 260.72,-1188.88"/>
<text text-anchor="start" x="312" y="-1192.42" font-family="Purisa" font-size="14.00">permute(</text>
<text text-anchor="start" x="384" y="-1192.42" font-family="Purisa" font-size="14.00" fill="#0378ab">bc</text>
<text text-anchor="start" x="402" y="-1192.42" font-family="Purisa" font-size="14.00">)</text>
</g>
<!-- C1_permute&#45;&gt;C1A_permute -->
<g id="edge1" class="edge">
<title>C1_permute&#45;&gt;C1A_permute</title>
<path fill="none" stroke="#999999" stroke-width="2" d="M362,-1339.09C362,-1309.83 362,-1254.14 362,-1221.58"/>
<polygon fill="#999999" stroke="#999999" stroke-width="2" points="365.5,-1221.49 362,-1211.49 358.5,-1221.49 365.5,-1221.49"/>
<text text-anchor="start" x="362" y="-1306.83" font-family="Purisa" font-size="18.00" fill="#0378ab"> bc</text>
</g>
<!-- C1A_used_chars -->
<g id="node5" class="node">
<title>C1A_used_chars</title>
<polygon fill="none" stroke="#7777bb" stroke-width="0" points="242,-1011.92 242,-1049.92 330,-1049.92 330,-1011.92 242,-1011.92"/>
<polygon fill="none" stroke="#7777bb" stroke-width="2" points="251,-1016.92 251,-1044.92 273,-1044.92 273,-1016.92 251,-1016.92"/>
<text text-anchor="start" x="257" y="-1026.52" font-family="Purisa" font-size="18.00" fill="#0378ab">a</text>
<polygon fill="none" stroke="#7777bb" stroke-width="2" points="275,-1016.92 275,-1044.92 297,-1044.92 297,-1016.92 275,-1016.92"/>
<text text-anchor="start" x="279.5" y="-1026.52" font-family="Purisa" font-size="18.00" fill="#0378ab">b</text>
<polygon fill="none" stroke="#7777bb" stroke-width="2" points="299,-1016.92 299,-1044.92 321,-1044.92 321,-1016.92 299,-1016.92"/>
<text text-anchor="start" x="303.5" y="-1026.52" font-family="Purisa" font-size="18.00" fill="#0378ab"> </text>
<text text-anchor="start" x="148" y="-1015.22" font-family="Purisa" font-size="14.00">used_chars[]</text>
</g>
<!-- C1_used_chars&#45;&gt;C1A_used_chars -->
<g id="edge3" class="edge">
<title>C1_used_chars&#45;&gt;C1A_used_chars</title>
<path fill="none" stroke="#7777bb" stroke-width="2" stroke-dasharray="5,2" d="M184.58,-1170.86C202.92,-1160.02 223.1,-1145.79 238,-1129.02 258.98,-1105.4 273.1,-1070.97 280.32,-1050.08"/>
<polygon fill="#7777bb" stroke="#7777bb" stroke-width="2" points="182.7,-1167.9 175.76,-1175.91 186.18,-1173.98 182.7,-1167.9"/>
<text text-anchor="start" x="186.32" y="-1055.68" font-family="Purisa" font-size="18.00" fill="#7777bb"> .pop() </text>
</g>
<!-- C2_used_chars -->
<g id="node6" class="node">
<title>C2_used_chars</title>
<polygon fill="none" stroke="#7777bb" stroke-width="0" points="227,-359.31 227,-397.31 315,-397.31 315,-359.31 227,-359.31"/>
<polygon fill="none" stroke="#7777bb" stroke-width="2" points="236,-364.31 236,-392.31 258,-392.31 258,-364.31 236,-364.31"/>
<text text-anchor="start" x="242" y="-373.91" font-family="Purisa" font-size="18.00" fill="#0378ab">a</text>
<polygon fill="none" stroke="#7777bb" stroke-width="2" points="260,-364.31 260,-392.31 282,-392.31 282,-364.31 260,-364.31"/>
<text text-anchor="start" x="265.5" y="-373.91" font-family="Purisa" font-size="18.00" fill="#0378ab">c</text>
<polygon fill="none" stroke="#7777bb" stroke-width="2" points="284,-364.31 284,-392.31 306,-392.31 306,-364.31 284,-364.31"/>
<text text-anchor="start" x="288.5" y="-373.91" font-family="Purisa" font-size="18.00" fill="#0378ab"> </text>
<text text-anchor="start" x="133" y="-401.61" font-family="Purisa" font-size="14.00">used_chars[]</text>
</g>
<!-- C1_used_chars&#45;&gt;C2_used_chars -->
<g id="edge4" class="edge">
<title>C1_used_chars&#45;&gt;C2_used_chars</title>
<path fill="none" stroke="#999999" stroke-width="2" stroke-dasharray="5,2" d="M131.75,-1176.09C119.82,-1140.04 95,-1056.3 95,-983.82 95,-983.82 95,-983.82 95,-711.61 95,-584 197.61,-457.53 246.13,-404.86"/>
<polygon fill="#999999" stroke="#999999" stroke-width="2" points="248.89,-407.03 253.16,-397.34 243.77,-402.26 248.89,-407.03"/>
</g>
<!-- C1_chars -->
<g id="node3" class="node">
<title>C1_chars</title>
<polygon fill="none" stroke="#999999" stroke-width="0" points="94,-1340.33 94,-1378.33 182,-1378.33 182,-1340.33 94,-1340.33"/>
<polygon fill="none" stroke="#999999" stroke-width="2" points="103,-1345.33 103,-1373.33 125,-1373.33 125,-1345.33 103,-1345.33"/>
<text text-anchor="start" x="109" y="-1354.93" font-family="Purisa" font-size="18.00" fill="#0378ab">a</text>
<polygon fill="none" stroke="#999999" stroke-width="2" points="127,-1345.33 127,-1373.33 149,-1373.33 149,-1345.33 127,-1345.33"/>
<text text-anchor="start" x="131.5" y="-1354.93" font-family="Purisa" font-size="18.00" fill="#0378ab">b</text>
<polygon fill="none" stroke="#999999" stroke-width="2" points="151,-1345.33 151,-1373.33 173,-1373.33 173,-1345.33 151,-1345.33"/>
<text text-anchor="start" x="156.5" y="-1354.93" font-family="Purisa" font-size="18.00" fill="#0378ab">c</text>
<text text-anchor="start" x="42" y="-1382.63" font-family="Purisa" font-size="14.00">chars[]</text>
</g>
<!-- C1A_permute&#45;&gt;C1A_used_chars -->
<g id="edge6" class="edge">
<title>C1A_permute&#45;&gt;C1A_used_chars</title>
<path fill="none" stroke="#7777bb" stroke-width="2" d="M353.43,-1175.83C340.14,-1147.48 314.49,-1092.73 298.94,-1059.55"/>
<polygon fill="#7777bb" stroke="#7777bb" stroke-width="2" points="302.07,-1057.96 294.66,-1050.39 295.73,-1060.93 302.07,-1057.96"/>
<text text-anchor="start" x="294.66" y="-1056.99" font-family="Purisa" font-weight="bold" font-size="18.00" fill="#7777bb"> </text>
<text text-anchor="start" x="307.66" y="-1056.99" font-family="Purisa" font-size="18.00" fill="#7777bb"> .push(b)</text>
</g>
<!-- C1AA_permute -->
<g id="node8" class="node">
<title>C1AA_permute</title>
<polygon fill="none" stroke="#77bb77" stroke-width="2" points="402.46,-1024.68 496,-1010.71 589.54,-1024.68 589.46,-1047.27 402.54,-1047.27 402.46,-1024.68"/>
<text text-anchor="start" x="450.5" y="-1028.22" font-family="Purisa" font-size="14.00">permute(</text>
<text text-anchor="start" x="522.5" y="-1028.22" font-family="Purisa" font-size="14.00" fill="#0378ab">c</text>
<text text-anchor="start" x="531.5" y="-1028.22" font-family="Purisa" font-size="14.00">)</text>
</g>
<!-- C1A_permute&#45;&gt;C1AA_permute -->
<g id="edge5" class="edge">
<title>C1A_permute&#45;&gt;C1AA_permute</title>
<path fill="none" stroke="#7777bb" stroke-width="2" d="M376.34,-1176.77C400.49,-1147.53 449.3,-1088.45 476.52,-1055.49"/>
<polygon fill="#7777bb" stroke="#7777bb" stroke-width="2" points="479.28,-1057.65 482.95,-1047.71 473.89,-1053.19 479.28,-1057.65"/>
<text text-anchor="start" x="409" y="-1142.62" font-family="Purisa" font-size="18.00" fill="#0378ab">c</text>
</g>
<!-- C1AA_used_chars -->
<g id="node9" class="node">
<title>C1AA_used_chars</title>
<polygon fill="none" stroke="#77bb77" stroke-width="0" points="390,-866.71 390,-904.71 478,-904.71 478,-866.71 390,-866.71"/>
<polygon fill="none" stroke="#77bb77" stroke-width="2" points="399,-871.71 399,-899.71 421,-899.71 421,-871.71 399,-871.71"/>
<text text-anchor="start" x="405" y="-881.31" font-family="Purisa" font-size="18.00" fill="#0378ab">a</text>
<polygon fill="none" stroke="#77bb77" stroke-width="2" points="423,-871.71 423,-899.71 445,-899.71 445,-871.71 423,-871.71"/>
<text text-anchor="start" x="427.5" y="-881.31" font-family="Purisa" font-size="18.00" fill="#0378ab">b</text>
<polygon fill="none" stroke="#77bb77" stroke-width="2" points="447,-871.71 447,-899.71 469,-899.71 469,-871.71 447,-871.71"/>
<text text-anchor="start" x="452.5" y="-881.31" font-family="Purisa" font-size="18.00" fill="#0378ab">c</text>
<text text-anchor="start" x="296" y="-870.01" font-family="Purisa" font-size="14.00">used_chars[]</text>
</g>
<!-- C1A_used_chars&#45;&gt;C1AA_used_chars -->
<g id="edge7" class="edge">
<title>C1A_used_chars&#45;&gt;C1AA_used_chars</title>
<path fill="none" stroke="#77bb77" stroke-width="2" stroke-dasharray="5,2" d="M332.49,-1006.92C340.2,-1002.54 347.97,-997.77 355,-992.82 370.18,-982.12 374.13,-979.09 386,-964.82 401.77,-945.85 416.04,-921.22 424.85,-904.73"/>
<polygon fill="#77bb77" stroke="#77bb77" stroke-width="2" points="330.58,-1003.98 323.51,-1011.86 333.95,-1010.11 330.58,-1003.98"/>
<text text-anchor="start" x="330.85" y="-910.33" font-family="Purisa" font-size="18.00" fill="#77bb77"> .pop() </text>
</g>
<!-- C2AA_used_chars -->
<g id="node14" class="node">
<title>C2AA_used_chars</title>
<polygon fill="none" stroke="#77bb77" stroke-width="0" points="375,-214.1 375,-252.1 463,-252.1 463,-214.1 375,-214.1"/>
<polygon fill="none" stroke="#77bb77" stroke-width="2" points="384,-219.1 384,-247.1 406,-247.1 406,-219.1 384,-219.1"/>
<text text-anchor="start" x="390" y="-228.7" font-family="Purisa" font-size="18.00" fill="#0378ab">a</text>
<polygon fill="none" stroke="#77bb77" stroke-width="2" points="408,-219.1 408,-247.1 430,-247.1 430,-219.1 408,-219.1"/>
<text text-anchor="start" x="413.5" y="-228.7" font-family="Purisa" font-size="18.00" fill="#0378ab">c</text>
<polygon fill="none" stroke="#77bb77" stroke-width="2" points="432,-219.1 432,-247.1 454,-247.1 454,-219.1 432,-219.1"/>
<text text-anchor="start" x="436.5" y="-228.7" font-family="Purisa" font-size="18.00" fill="#0378ab">b</text>
<text text-anchor="start" x="281" y="-217.4" font-family="Purisa" font-size="14.00">used_chars[]</text>
</g>
<!-- C2_used_chars&#45;&gt;C2AA_used_chars -->
<g id="edge15" class="edge">
<title>C2_used_chars&#45;&gt;C2AA_used_chars</title>
<path fill="none" stroke="#77bb77" stroke-width="2" stroke-dasharray="5,2" d="M297.19,-351.97C326.65,-323.46 373.78,-277.86 399.94,-252.54"/>
<polygon fill="#77bb77" stroke="#77bb77" stroke-width="2" points="294.5,-349.7 289.74,-359.17 299.36,-354.73 294.5,-349.7"/>
<text text-anchor="start" x="305.94" y="-258.14" font-family="Purisa" font-size="18.00" fill="#77bb77"> .pop() </text>
</g>
<!-- C1A_2A_BRANCH -->
<g id="node7" class="node">
<title>C1A_2A_BRANCH</title>
<ellipse fill="#7777bb" stroke="#7777bb" stroke-width="2" cx="462" cy="-690.01" rx="3.6" ry="3.6"/>
</g>
<!-- C2A_chars -->
<g id="node12" class="node">
<title>C2A_chars</title>
<polygon fill="none" stroke="#7777bb" stroke-width="0" points="418,-522.91 418,-560.91 506,-560.91 506,-522.91 418,-522.91"/>
<polygon fill="none" stroke="#7777bb" stroke-width="2" points="427,-527.91 427,-555.91 449,-555.91 449,-527.91 427,-527.91"/>
<text text-anchor="start" x="431.5" y="-537.51" font-family="Purisa" font-size="18.00" fill="#0378ab">b</text>
<polygon fill="none" stroke="#7777bb" stroke-width="2" points="451,-527.91 451,-555.91 473,-555.91 473,-527.91 451,-527.91"/>
<text text-anchor="start" x="456.5" y="-537.51" font-family="Purisa" font-size="18.00" fill="#0378ab">c</text>
<polygon fill="none" stroke="#7777bb" stroke-width="2" points="475,-527.91 475,-555.91 497,-555.91 497,-527.91 475,-527.91"/>
<text text-anchor="start" x="479.5" y="-537.51" font-family="Purisa" font-size="18.00" fill="#0378ab"> </text>
<text text-anchor="start" x="366" y="-565.21" font-family="Purisa" font-size="14.00">chars[]</text>
</g>
<!-- C1A_2A_BRANCH&#45;&gt;C2A_chars -->
<g id="edge12" class="edge">
<title>C1A_2A_BRANCH&#45;&gt;C2A_chars</title>
<path fill="none" stroke="#7777bb" stroke-width="2" d="M462,-686.22C462,-672.26 462,-609.08 462,-571.42"/>
<polygon fill="#7777bb" stroke="#7777bb" stroke-width="2" points="465.5,-571.09 462,-561.09 458.5,-571.09 465.5,-571.09"/>
</g>
<!-- C1AA_permute&#45;&gt;C1AA_used_chars -->
<g id="edge10" class="edge">
<title>C1AA_permute&#45;&gt;C1AA_used_chars</title>
<path fill="none" stroke="#77bb77" stroke-width="2" d="M488.15,-1011.78C477.54,-987.28 458.52,-943.36 446.09,-914.63"/>
<polygon fill="#77bb77" stroke="#77bb77" stroke-width="2" points="449.17,-912.94 441.98,-905.16 442.75,-915.72 449.17,-912.94"/>
<text text-anchor="start" x="441.98" y="-911.76" font-family="Purisa" font-weight="bold" font-size="18.00" fill="#77bb77"> </text>
<text text-anchor="start" x="454.98" y="-911.76" font-family="Purisa" font-size="18.00" fill="#77bb77"> .push(c)</text>
</g>
<!-- C1AAA_permute -->
<g id="node11" class="node">
<title>C1AAA_permute</title>
<polygon fill="none" stroke="#cccccc" stroke-width="2" points="549.71,-879.47 644,-865.51 738.29,-879.47 738.2,-902.06 549.8,-902.06 549.71,-879.47"/>
<text text-anchor="start" x="598" y="-883.01" font-family="Purisa" font-size="14.00" fill="LIGHTGRAY">permute(</text>
<text text-anchor="start" x="670" y="-883.01" font-family="Purisa" font-size="14.00" fill="#0378ab"> </text>
<text text-anchor="start" x="680" y="-883.01" font-family="Purisa" font-size="14.00" fill="LIGHTGRAY">)</text>
</g>
<!-- C1AA_permute&#45;&gt;C1AAA_permute -->
<g id="edge9" class="edge">
<title>C1AA_permute&#45;&gt;C1AAA_permute</title>
<path fill="none" stroke="#77bb77" stroke-width="2" stroke-dasharray="5,2" d="M513.27,-1013.21C539.73,-987.61 590.37,-938.61 620.26,-909.68"/>
<polygon fill="#77bb77" stroke="#77bb77" stroke-width="2" points="622.99,-911.91 627.75,-902.44 618.13,-906.88 622.99,-911.91"/>
<text text-anchor="start" x="552" y="-978.42" font-family="Purisa" font-size="18.00" fill="#0378ab"> </text>
</g>
<!-- C1AA_permutation_array -->
<g id="node10" class="node">
<title>C1AA_permutation_array</title>
<polygon fill="none" stroke="#77bb77" stroke-width="0" points="418,-751.11 418,-789.11 506,-789.11 506,-751.11 418,-751.11"/>
<polygon fill="none" stroke="#77bb77" stroke-width="2" points="427,-756.11 427,-784.11 449,-784.11 449,-756.11 427,-756.11"/>
<text text-anchor="start" x="433" y="-765.71" font-family="Purisa" font-size="18.00" fill="#0378ab">a</text>
<polygon fill="none" stroke="#77bb77" stroke-width="2" points="451,-756.11 451,-784.11 473,-784.11 473,-756.11 451,-756.11"/>
<text text-anchor="start" x="455.5" y="-765.71" font-family="Purisa" font-size="18.00" fill="#0378ab">b</text>
<polygon fill="none" stroke="#77bb77" stroke-width="2" points="475,-756.11 475,-784.11 497,-784.11 497,-756.11 475,-756.11"/>
<text text-anchor="start" x="480.5" y="-765.71" font-family="Purisa" font-size="18.00" fill="#0378ab">c</text>
<text text-anchor="start" x="259" y="-793.41" font-family="Purisa" font-size="14.00">permutation_array[0]</text>
</g>
<!-- C1AA_used_chars&#45;&gt;C1AA_permutation_array -->
<g id="edge11" class="edge">
<title>C1AA_used_chars&#45;&gt;C1AA_permutation_array</title>
<path fill="none" stroke="#77bb77" stroke-width="2" d="M438.44,-866.71C442.9,-848.62 449.83,-820.47 455.03,-799.4"/>
<polygon fill="#77bb77" stroke="#77bb77" stroke-width="2" points="458.5,-799.95 457.49,-789.4 451.7,-798.28 458.5,-799.95"/>
<text text-anchor="start" x="452" y="-813.21" font-family="Purisa" font-size="18.00" fill="#0378ab"> </text>
</g>
<!-- C1AA_permutation_array&#45;&gt;C1A_2A_BRANCH -->
<g id="edge8" class="edge">
<title>C1AA_permutation_array&#45;&gt;C1A_2A_BRANCH</title>
<path fill="none" stroke="#7777bb" stroke-width="0" d="M462,-751C462,-731.71 462,-702.75 462,-693.77"/>
</g>
<!-- C2A_chars&#45;&gt;C2_used_chars -->
<g id="edge13" class="edge">
<title>C2A_chars&#45;&gt;C2_used_chars</title>
<path fill="none" stroke="#7777bb" stroke-width="2" d="M417.82,-523.82C416.53,-523.34 415.26,-522.87 414,-522.41 372.92,-507.39 355.5,-509.59 327,-476.41 308.72,-455.13 293.27,-427.02 283.26,-406.52"/>
<polygon fill="#7777bb" stroke="#7777bb" stroke-width="2" points="286.38,-404.94 278.92,-397.42 280.06,-407.95 286.38,-404.94"/>
<text text-anchor="start" x="361" y="-490.01" font-family="Purisa" font-size="18.00" fill="#7777bb">.push(c)</text>
</g>
<!-- C2AA_permute -->
<g id="node13" class="node">
<title>C2AA_permute</title>
<polygon fill="none" stroke="#77bb77" stroke-width="2" points="386.71,-372.06 481,-358.1 575.29,-372.06 575.2,-394.66 386.8,-394.66 386.71,-372.06"/>
<text text-anchor="start" x="435" y="-375.61" font-family="Purisa" font-size="14.00">permute(</text>
<text text-anchor="start" x="507" y="-375.61" font-family="Purisa" font-size="14.00" fill="#0378ab">b</text>
<text text-anchor="start" x="517" y="-375.61" font-family="Purisa" font-size="14.00">)</text>
</g>
<!-- C2A_chars&#45;&gt;C2AA_permute -->
<g id="edge14" class="edge">
<title>C2A_chars&#45;&gt;C2AA_permute</title>
<path fill="none" stroke="#7777bb" stroke-width="2" d="M464.14,-522.69C467.53,-493.91 474.12,-437.86 477.98,-405.01"/>
<polygon fill="#7777bb" stroke="#7777bb" stroke-width="2" points="481.48,-405.17 479.18,-394.83 474.53,-404.35 481.48,-405.17"/>
<text text-anchor="start" x="468" y="-490.01" font-family="Purisa" font-size="18.00" fill="#0378ab"> b</text>
</g>
<!-- C2AA_permute&#45;&gt;C2AA_used_chars -->
<g id="edge17" class="edge">
<title>C2AA_permute&#45;&gt;C2AA_used_chars</title>
<path fill="none" stroke="#77bb77" stroke-width="2" d="M473.15,-359.17C462.54,-334.66 443.52,-290.75 431.09,-262.02"/>
<polygon fill="#77bb77" stroke="#77bb77" stroke-width="2" points="434.17,-260.33 426.98,-252.54 427.75,-263.11 434.17,-260.33"/>
<text text-anchor="start" x="426.98" y="-259.14" font-family="Purisa" font-weight="bold" font-size="18.00" fill="#77bb77"> </text>
<text text-anchor="start" x="439.98" y="-259.14" font-family="Purisa" font-size="18.00" fill="#77bb77"> .push(b)</text>
</g>
<!-- C2AAA_permute -->
<g id="node16" class="node">
<title>C2AAA_permute</title>
<polygon fill="none" stroke="#cccccc" stroke-width="2" points="534.71,-226.86 629,-212.9 723.29,-226.86 723.2,-249.45 534.8,-249.45 534.71,-226.86"/>
<text text-anchor="start" x="583" y="-230.4" font-family="Purisa" font-size="14.00" fill="LIGHTGRAY">permute(</text>
<text text-anchor="start" x="655" y="-230.4" font-family="Purisa" font-size="14.00" fill="#0378ab"> </text>
<text text-anchor="start" x="665" y="-230.4" font-family="Purisa" font-size="14.00" fill="LIGHTGRAY">)</text>
</g>
<!-- C2AA_permute&#45;&gt;C2AAA_permute -->
<g id="edge16" class="edge">
<title>C2AA_permute&#45;&gt;C2AAA_permute</title>
<path fill="none" stroke="#77bb77" stroke-width="2" stroke-dasharray="5,2" d="M498.27,-360.6C524.73,-335 575.37,-286 605.26,-257.07"/>
<polygon fill="#77bb77" stroke="#77bb77" stroke-width="2" points="607.99,-259.3 612.75,-249.83 603.13,-254.27 607.99,-259.3"/>
<text text-anchor="start" x="537" y="-325.81" font-family="Purisa" font-size="18.00" fill="#0378ab"> </text>
</g>
<!-- C2AA_permutation_array -->
<g id="node15" class="node">
<title>C2AA_permutation_array</title>
<polygon fill="none" stroke="#77bb77" stroke-width="0" points="403,-98.5 403,-136.5 491,-136.5 491,-98.5 403,-98.5"/>
<polygon fill="none" stroke="#77bb77" stroke-width="2" points="412,-103.5 412,-131.5 434,-131.5 434,-103.5 412,-103.5"/>
<text text-anchor="start" x="418" y="-113.1" font-family="Purisa" font-size="18.00" fill="#0378ab">a</text>
<polygon fill="none" stroke="#77bb77" stroke-width="2" points="436,-103.5 436,-131.5 458,-131.5 458,-103.5 436,-103.5"/>
<text text-anchor="start" x="441.5" y="-113.1" font-family="Purisa" font-size="18.00" fill="#0378ab">c</text>
<polygon fill="none" stroke="#77bb77" stroke-width="2" points="460,-103.5 460,-131.5 482,-131.5 482,-103.5 460,-103.5"/>
<text text-anchor="start" x="464.5" y="-113.1" font-family="Purisa" font-size="18.00" fill="#0378ab">b</text>
<text text-anchor="start" x="247" y="-140.8" font-family="Purisa" font-size="14.00">permutation_array[1]</text>
</g>
<!-- C2AA_used_chars&#45;&gt;C2AA_permutation_array -->
<g id="edge18" class="edge">
<title>C2AA_used_chars&#45;&gt;C2AA_permutation_array</title>
<path fill="none" stroke="#77bb77" stroke-width="2" d="M423.44,-214.1C427.9,-196.01 434.83,-167.86 440.03,-146.79"/>
<polygon fill="#77bb77" stroke="#77bb77" stroke-width="2" points="443.5,-147.34 442.49,-136.79 436.7,-145.66 443.5,-147.34"/>
<text text-anchor="start" x="437" y="-160.6" font-family="Purisa" font-size="18.00" fill="#0378ab"> </text>
</g>
</g>
</svg>
